<?xml version="1.0" encoding="utf-8"?><svg id="P-NET" xmlns="http://www.w3.org/2000/svg" xmlns:xlink="http://www.w3.org/1999/xlink" viewBox="0 0 76.34 65.27"><defs><style>.cls-1{fill:#32b2ea;}.cls-2{fill:#1e86c6;}.cls-3{fill:#fff;}.cls-4{fill:url(#Namnlös_övertoning_23);}</style><linearGradient id="Namnlös_övertoning_23" x1="0.02" y1="5.52" x2="76.33" y2="5.52" gradientUnits="userSpaceOnUse"><stop offset="0" stop-color="#2da67b"/><stop offset="1" stop-color="#2da67b"/><stop offset="1" stop-color="#f7941e"/></linearGradient></defs><title>p-net</title><polygon class="cls-1" points="11.03 14.06 0 25.09 0 44.19 76.34 44.19 76.34 14.06 11.03 14.06"/><rect class="cls-2" y="47.2" width="76.34" height="18.08"/><path class="cls-3" d="M407.55,559.72l-.38,3h1a1.82,1.82,0,0,0,.74-.13,1.16,1.16,0,0,0,.49-.37,1.37,1.37,0,0,0,.27-.57,2.81,2.81,0,0,0,.09-.73,1.54,1.54,0,0,0-.08-.5,1,1,0,0,0-.22-.4,1,1,0,0,0-.39-.25,1.32,1.32,0,0,0-.55-.1Zm-.57,4.61-.39,3.13h-2.06l1.13-9.29h3.07a4.21,4.21,0,0,1,1.42.21,2.35,2.35,0,0,1,1,.55,2,2,0,0,1,.56.84,2.86,2.86,0,0,1,.18,1,4.34,4.34,0,0,1-.23,1.41,3.07,3.07,0,0,1-.71,1.11,3.22,3.22,0,0,1-1.22.74,5,5,0,0,1-1.73.27Z" transform="translate(-396.47 -533.69)"/><polygon class="cls-3" points="16.08 29.13 19.28 29.13 19.08 30.67 15.89 30.67 16.08 29.13"/><path class="cls-3" d="M418.67,558.17h.22a.38.38,0,0,1,.17.05.42.42,0,0,1,.14.09l.11.17,3.26,5.74c0-.15,0-.29,0-.43s0-.26,0-.38l.63-5.25h1.83L424,567.46h-1.08a1,1,0,0,1-.4-.07.64.64,0,0,1-.27-.27L419,561.38l0,.35,0,.31-.63,5.42h-1.84l1.14-9.29Z" transform="translate(-396.47 -533.69)"/><polygon class="cls-3" points="35.32 26.08 31.88 26.08 31.6 28.32 34.23 28.32 34.03 29.87 31.41 29.87 31.13 32.17 34.59 32.17 34.38 33.77 28.84 33.77 29.98 24.48 35.52 24.48 35.32 26.08"/><polygon class="cls-3" points="42.85 24.48 42.64 26.13 40.28 26.13 39.33 33.77 37.27 33.77 38.2 26.13 35.82 26.13 36.03 24.48 42.85 24.48"/><path class="cls-3" d="M405.6,586.66H406a.57.57,0,0,0,.44-.14.61.61,0,0,0,.14-.42.49.49,0,0,0,0-.21.37.37,0,0,0-.1-.16.5.5,0,0,0-.19-.11.62.62,0,0,0-.25,0h-.42Zm0,.61v1.14h-.79V585H406a2.25,2.25,0,0,1,.62.09,1.22,1.22,0,0,1,.42.24.84.84,0,0,1,.25.35,1.11,1.11,0,0,1,.08.44,1.19,1.19,0,0,1-.08.47.87.87,0,0,1-.25.37,1.27,1.27,0,0,1-.43.24,1.87,1.87,0,0,1-.61.09Z" transform="translate(-396.47 -533.69)"/><path class="cls-3" d="M408.6,586.59h.32a.79.79,0,0,0,.28,0,.37.37,0,0,0,.18-.11.39.39,0,0,0,.11-.17.71.71,0,0,0,0-.21.45.45,0,0,0-.14-.35.67.67,0,0,0-.46-.13h-.32Zm0,.56v1.26h-.79V585h1.11a2.25,2.25,0,0,1,.63.08,1.15,1.15,0,0,1,.43.21.85.85,0,0,1,.24.33,1,1,0,0,1,.08.4,1.13,1.13,0,0,1-.05.32,1,1,0,0,1-.13.27.92.92,0,0,1-.22.22,1.17,1.17,0,0,1-.29.17.6.6,0,0,1,.15.09,1,1,0,0,1,.12.15l.73,1.19h-.72a.31.31,0,0,1-.29-.15l-.56-1a.3.3,0,0,0-.09-.1.34.34,0,0,0-.15,0Z" transform="translate(-396.47 -533.69)"/><path class="cls-3" d="M413.38,586.7a1.65,1.65,0,0,0-.06-.46,1,1,0,0,0-.19-.34.84.84,0,0,0-.31-.22,1,1,0,0,0-.4-.08,1.07,1.07,0,0,0-.41.08.84.84,0,0,0-.31.22.85.85,0,0,0-.18.34,1.55,1.55,0,0,0,0,.92.92.92,0,0,0,.18.34,1,1,0,0,0,.31.22,1.07,1.07,0,0,0,.41.07,1,1,0,0,0,.4-.07,1,1,0,0,0,.31-.22,1.11,1.11,0,0,0,.19-.34A1.65,1.65,0,0,0,413.38,586.7Zm.82,0a1.93,1.93,0,0,1-.13.69,2.06,2.06,0,0,1-.36.56,1.91,1.91,0,0,1-1.29.5,1.9,1.9,0,0,1-.73-.14,1.69,1.69,0,0,1-.56-.36,1.88,1.88,0,0,1-.37-.56,1.92,1.92,0,0,1-.12-.69,2,2,0,0,1,.12-.7,1.72,1.72,0,0,1,.37-.55,1.57,1.57,0,0,1,.56-.37,1.9,1.9,0,0,1,.73-.13,1.91,1.91,0,0,1,1.29.5,1.8,1.8,0,0,1,.36.56A1.93,1.93,0,0,1,414.2,586.7Z" transform="translate(-396.47 -533.69)"/><polygon class="cls-3" points="20.31 51.29 20.31 51.91 18.91 51.91 18.91 52.77 20.07 52.77 20.07 53.39 18.91 53.39 18.91 54.72 18.11 54.72 18.11 51.29 20.31 51.29"/><rect class="cls-3" x="20.79" y="51.29" width="0.8" height="3.43"/><path class="cls-3" d="M419.11,585h.09l.07,0,.05,0,.06.07,1.62,2c0-.06,0-.13,0-.19s0-.12,0-.17V585h.71v3.43h-.42a.33.33,0,0,1-.15,0,.28.28,0,0,1-.12-.1l-1.62-2a1,1,0,0,1,0,.17c0,.06,0,.11,0,.16v1.84h-.7V585Z" transform="translate(-396.47 -533.69)"/><polygon class="cls-3" points="27.98 51.29 27.98 51.91 26.58 51.91 26.58 52.7 27.66 52.7 27.66 53.29 26.58 53.29 26.58 54.11 27.98 54.11 27.98 54.72 25.78 54.72 25.78 51.29 27.98 51.29"/><polygon class="cls-3" points="30.92 51.29 30.92 51.93 29.96 51.93 29.96 54.72 29.16 54.72 29.16 51.93 28.2 51.93 28.2 51.29 30.92 51.29"/><rect class="cls-3" x="8.41" y="57.17" width="0.8" height="3.43"/><path class="cls-3" d="M408.88,592.57a1.25,1.25,0,0,0-.07-.45.79.79,0,0,0-.19-.35.84.84,0,0,0-.3-.22,1,1,0,0,0-.41-.07,1.1,1.1,0,0,0-.41.07.93.93,0,0,0-.3.22.91.91,0,0,0-.19.35,1.53,1.53,0,0,0-.06.45,1.6,1.6,0,0,0,.06.46,1,1,0,0,0,.19.35.9.9,0,0,0,.3.21,1.1,1.1,0,0,0,.41.07,1,1,0,0,0,.41-.07.81.81,0,0,0,.3-.21.85.85,0,0,0,.19-.35A1.31,1.31,0,0,0,408.88,592.57Zm.81,0a1.73,1.73,0,0,1-.13.69,1.5,1.5,0,0,1-.36.56,1.57,1.57,0,0,1-.56.37,2.09,2.09,0,0,1-1.45,0,1.7,1.7,0,0,1-.57-.37,1.8,1.8,0,0,1-.36-.56,1.82,1.82,0,0,1,.36-1.94,1.85,1.85,0,0,1,.57-.36,1.95,1.95,0,0,1,1.45,0,1.57,1.57,0,0,1,.56.37,1.46,1.46,0,0,1,.36.55A1.77,1.77,0,0,1,409.69,592.57Z" transform="translate(-396.47 -533.69)"/><rect class="cls-3" x="13.55" y="58.87" width="1.27" height="0.59"/><path class="cls-3" d="M414.11,592.57a1.64,1.64,0,0,0-.07-.46.94.94,0,0,0-.19-.34.73.73,0,0,0-.3-.22,1.07,1.07,0,0,0-.41-.08h-.53v2.2h.53a1.07,1.07,0,0,0,.41-.07.84.84,0,0,0,.3-.22A1,1,0,0,0,414,593,1.59,1.59,0,0,0,414.11,592.57Zm.81,0a1.73,1.73,0,0,1-.13.69,1.55,1.55,0,0,1-.36.54,1.8,1.8,0,0,1-.56.36,2.11,2.11,0,0,1-.73.12h-1.33v-3.42h1.33a1.9,1.9,0,0,1,.73.13,1.63,1.63,0,0,1,.56.36,1.55,1.55,0,0,1,.36.54A1.68,1.68,0,0,1,414.92,592.57Z" transform="translate(-396.47 -533.69)"/><polygon class="cls-3" points="21.04 57.17 21.04 57.78 19.63 57.78 19.63 58.58 20.71 58.58 20.71 59.17 19.63 59.17 19.63 59.98 21.04 59.98 21.04 60.59 18.83 60.59 18.83 57.17 21.04 57.17"/><path class="cls-3" d="M417.67,590.86h.64a.29.29,0,0,1,.17,0,.27.27,0,0,1,.09.12l.67,1.83c0,.09.06.17.09.27a2.45,2.45,0,0,1,.08.29,2.45,2.45,0,0,1,.08-.29c0-.1.06-.18.08-.27l.66-1.83a.47.47,0,0,1,.09-.12.34.34,0,0,1,.17,0h.65l-1.38,3.42H419Z" transform="translate(-396.47 -533.69)"/><rect class="cls-3" x="25.02" y="57.17" width="0.8" height="3.43"/><path class="cls-3" d="M425.22,593.4h.06a.1.1,0,0,1,.05,0l.32.33a1.4,1.4,0,0,1-.52.41,1.85,1.85,0,0,1-.74.13,1.75,1.75,0,0,1-.7-.13,1.5,1.5,0,0,1-.52-.37,1.68,1.68,0,0,1-.33-.55,2,2,0,0,1-.11-.7,1.79,1.79,0,0,1,.49-1.26,1.85,1.85,0,0,1,.57-.36,1.93,1.93,0,0,1,1.09-.09,1.68,1.68,0,0,1,.32.09,1.71,1.71,0,0,1,.27.14,1.37,1.37,0,0,1,.22.19l-.27.36-.06.06a.15.15,0,0,1-.1,0l-.08,0-.08-.05-.09-.06-.12-.06-.16,0a.78.78,0,0,0-.22,0,1,1,0,0,0-.39.07.87.87,0,0,0-.31.22,1,1,0,0,0-.2.35,1.25,1.25,0,0,0-.07.45,1.37,1.37,0,0,0,.07.47,1,1,0,0,0,.19.34.81.81,0,0,0,.65.29h.19l.17,0a.61.61,0,0,0,.14-.07.45.45,0,0,0,.14-.1l.07,0Z" transform="translate(-396.47 -533.69)"/><polygon class="cls-3" points="31.75 57.17 31.75 57.78 30.34 57.78 30.34 58.58 31.42 58.58 31.42 59.17 30.34 59.17 30.34 59.98 31.75 59.98 31.75 60.59 29.54 60.59 29.54 57.17 31.75 57.17"/><path class="cls-3" d="M443,558.22l-.07.6h-1l-.36,2.93h-.72l.36-2.93h-1l.09-.6Zm2,2a1.09,1.09,0,0,1,.07.3,1.09,1.09,0,0,0,.08-.15l.09-.15,1.13-1.84a.37.37,0,0,1,.1-.11h.76l-.42,3.53h-.64l.28-2.22.09-.42-1.24,2a.28.28,0,0,1-.26.16h-.11a.23.23,0,0,1-.23-.16l-.75-2v.43l-.27,2.22h-.63l.42-3.53h.76a.17.17,0,0,1,.09.11Z" transform="translate(-396.47 -533.69)"/><polygon class="cls-4" points="65.29 0 0.02 0 11.06 11.05 76.33 11.05 65.29 0"/></svg>